# xmcd CD database file
#
# Track frame offsets:
#	150
#	18084
#	33773
#	56109
#	67762
#	80816
#	99717
#	116483
#	130671
#	143002
#	152830
#	166810
#	185493
#
# Disc length: 2678 seconds
#
# Revision: 4
# Processed by: cddbd v1.5.2PL0 Copyright (c) Steve Scherf et al.
# Submitted via: CDex 1.51
#
DISCID=a10a740d
DTITLE=Various Artist - Texas Boogie - A Collection Of .... Texas Songs
DYEAR=2001
DGENRE=Country Rock
TTITLE0=Johnny Rodriguez - Corpus Christi Bay
TTITLE1=Jimmie Dale Gilmore - Dallas
TTITLE2=Dave Alvin - Abilene
TTITLE3=Hank Thompson - Condo In Hondo
TTITLE4=Dale Watson - South Of Round Rock, TX
TTITLE5=Tom Russell - Mineral Wells
TTITLE6=Rosie Flores - West Texas Plains
TTITLE7=Redd Volkaert - Home In San Antone
TTITLE8=Johnny Rodriguez - Still A Lot Of Love In San Antone
TTITLE9=Dave Biller and Travis County Pickin' - Austin-Tatious
TTITLE10=Dale Watson - Texas Boogie
TTITLE11=Dave Alvin - East Texas Blues
TTITLE12=Chris Gaffney - East Of Houston, West Of Baton Rouge
EXTD=YEAR: 2001
EXTT0=
EXTT1=
EXTT2=
EXTT3=
EXTT4=
EXTT5=
EXTT6=
EXTT7=
EXTT8=
EXTT9=
EXTT10=
EXTT11=
EXTT12=
PLAYORDER=
